<svg width="149" height="41" viewBox="0 0 149 41" fill="none" xmlns="http://www.w3.org/2000/svg">
<g clip-path="url(#clip0)">
<path d="M87.848 26.192C85.72 26.192 84.016 25.792 82.736 24.992C81.456 24.176 80.816 22.936 80.816 21.272C80.816 20.392 80.968 19.72 81.272 19.256C81.576 18.792 82.024 18.56 82.616 18.56C83.048 18.56 83.4 18.672 83.672 18.896C83.944 19.12 84.08 19.408 84.08 19.76C84.08 20.08 84.056 20.36 84.008 20.6C84.008 20.664 83.992 20.776 83.96 20.936C83.944 21.096 83.936 21.264 83.936 21.44C83.936 22.16 84.296 22.696 85.016 23.048C85.752 23.4 86.776 23.576 88.088 23.576C89.448 23.576 90.512 23.336 91.28 22.856C92.048 22.36 92.432 21.672 92.432 20.792C92.432 20.248 92.256 19.784 91.904 19.4C91.552 19 91.112 18.672 90.584 18.416C90.056 18.144 89.312 17.816 88.352 17.432C87.12 16.952 86.112 16.496 85.328 16.064C84.56 15.632 83.896 15.048 83.336 14.312C82.792 13.56 82.52 12.632 82.52 11.528C82.52 10.376 82.824 9.352 83.432 8.456C84.056 7.56 84.944 6.864 86.096 6.368C87.264 5.872 88.632 5.624 90.2 5.624C91.368 5.624 92.44 5.8 93.416 6.152C94.392 6.488 95.168 7.008 95.744 7.712C96.336 8.416 96.632 9.28 96.632 10.304C96.632 11.312 96.48 12.072 96.176 12.584C95.872 13.096 95.424 13.352 94.832 13.352C94.416 13.352 94.064 13.224 93.776 12.968C93.504 12.712 93.368 12.408 93.368 12.056C93.368 11.752 93.392 11.472 93.44 11.216C93.488 10.736 93.512 10.432 93.512 10.304C93.512 9.632 93.184 9.12 92.528 8.768C91.872 8.416 91.056 8.24 90.08 8.24C88.704 8.24 87.648 8.496 86.912 9.008C86.192 9.504 85.832 10.208 85.832 11.12C85.832 11.728 86.016 12.248 86.384 12.68C86.768 13.112 87.24 13.472 87.8 13.76C88.36 14.048 89.144 14.392 90.152 14.792C91.368 15.288 92.344 15.736 93.08 16.136C93.816 16.536 94.44 17.08 94.952 17.768C95.48 18.456 95.744 19.304 95.744 20.312C95.744 22.2 95.024 23.656 93.584 24.68C92.16 25.688 90.248 26.192 87.848 26.192ZM110.878 20.648C111.086 20.648 111.246 20.744 111.358 20.936C111.486 21.128 111.55 21.392 111.55 21.728C111.55 22.368 111.398 22.864 111.094 23.216C110.358 24.064 109.598 24.76 108.814 25.304C108.046 25.848 107.166 26.12 106.174 26.12C105.358 26.12 104.742 25.888 104.326 25.424C103.91 24.944 103.702 24.256 103.702 23.36C103.702 22.912 103.814 22.112 104.038 20.96C104.246 19.952 104.35 19.256 104.35 18.872C104.35 18.616 104.262 18.488 104.086 18.488C103.878 18.488 103.582 18.76 103.198 19.304C102.814 19.832 102.43 20.536 102.046 21.416C101.662 22.296 101.35 23.224 101.11 24.2C100.806 25.48 100.054 26.12 98.8543 26.12C98.3743 26.12 98.0543 25.952 97.8943 25.616C97.7503 25.264 97.6783 24.64 97.6783 23.744C97.6783 23.232 97.6863 22.824 97.7023 22.52L97.7263 20.6C97.7263 18.136 97.9743 15.568 98.4703 12.896C98.9823 10.224 99.7263 7.984 100.702 6.176C101.694 4.352 102.878 3.44 104.254 3.44C104.99 3.44 105.582 3.76 106.03 4.4C106.494 5.024 106.726 5.84 106.726 6.848C106.726 8.464 106.254 10.144 105.31 11.888C104.366 13.616 102.83 15.64 100.702 17.96C100.654 18.792 100.63 19.648 100.63 20.528C101.158 19.168 101.742 18.064 102.382 17.216C103.038 16.352 103.678 15.736 104.302 15.368C104.942 15 105.526 14.816 106.054 14.816C107.094 14.816 107.614 15.336 107.614 16.376C107.614 17 107.438 18.128 107.086 19.76C106.782 21.152 106.63 22.072 106.63 22.52C106.63 23.16 106.862 23.48 107.326 23.48C107.646 23.48 108.022 23.288 108.454 22.904C108.902 22.504 109.494 21.864 110.23 20.984C110.422 20.76 110.638 20.648 110.878 20.648ZM103.75 5.816C103.462 5.816 103.142 6.232 102.79 7.064C102.438 7.88 102.094 8.992 101.758 10.4C101.438 11.792 101.174 13.312 100.966 14.96C101.958 13.792 102.774 12.52 103.414 11.144C104.07 9.768 104.398 8.52 104.398 7.4C104.398 6.888 104.342 6.496 104.23 6.224C104.118 5.952 103.958 5.816 103.75 5.816ZM112.749 13.232C112.077 13.232 111.573 13.08 111.237 12.776C110.901 12.456 110.733 12.016 110.733 11.456C110.733 10.896 110.949 10.432 111.381 10.064C111.829 9.68 112.381 9.488 113.037 9.488C113.629 9.488 114.109 9.632 114.477 9.92C114.845 10.208 115.029 10.616 115.029 11.144C115.029 11.784 114.821 12.296 114.405 12.68C113.989 13.048 113.437 13.232 112.749 13.232ZM112.557 26.12C111.517 26.12 110.757 25.752 110.277 25.016C109.813 24.28 109.581 23.304 109.581 22.088C109.581 21.368 109.669 20.448 109.845 19.328C110.037 18.192 110.277 17.136 110.565 16.16C110.709 15.648 110.901 15.296 111.141 15.104C111.381 14.912 111.765 14.816 112.293 14.816C113.109 14.816 113.517 15.088 113.517 15.632C113.517 16.032 113.365 16.96 113.061 18.416C112.677 20.176 112.485 21.368 112.485 21.992C112.485 22.472 112.549 22.84 112.677 23.096C112.805 23.352 113.021 23.48 113.325 23.48C113.613 23.48 113.973 23.28 114.405 22.88C114.837 22.48 115.413 21.848 116.133 20.984C116.325 20.76 116.541 20.648 116.781 20.648C116.989 20.648 117.149 20.744 117.261 20.936C117.389 21.128 117.453 21.392 117.453 21.728C117.453 22.368 117.301 22.864 116.997 23.216C115.413 25.152 113.933 26.12 112.557 26.12ZM124.607 20.648C124.815 20.648 124.975 20.744 125.087 20.936C125.215 21.128 125.279 21.392 125.279 21.728C125.279 22.368 125.127 22.864 124.823 23.216C124.135 24.064 123.383 24.76 122.567 25.304C121.767 25.848 120.855 26.12 119.831 26.12C118.423 26.12 117.375 25.48 116.687 24.2C116.015 22.92 115.679 21.264 115.679 19.232C115.679 17.28 115.927 15.056 116.423 12.56C116.935 10.064 117.679 7.92 118.655 6.128C119.647 4.336 120.823 3.44 122.183 3.44C122.951 3.44 123.551 3.8 123.983 4.52C124.431 5.224 124.655 6.24 124.655 7.568C124.655 9.472 124.127 11.68 123.071 14.192C122.015 16.704 120.583 19.192 118.775 21.656C118.887 22.312 119.071 22.784 119.327 23.072C119.583 23.344 119.919 23.48 120.335 23.48C120.991 23.48 121.567 23.296 122.063 22.928C122.559 22.544 123.191 21.896 123.959 20.984C124.151 20.76 124.367 20.648 124.607 20.648ZM121.655 5.816C121.287 5.816 120.871 6.48 120.407 7.808C119.943 9.136 119.535 10.784 119.183 12.752C118.831 14.72 118.639 16.608 118.607 18.416C119.743 16.544 120.647 14.672 121.319 12.8C121.991 10.912 122.327 9.192 122.327 7.64C122.327 6.424 122.103 5.816 121.655 5.816ZM137.212 20.648C137.42 20.648 137.58 20.744 137.692 20.936C137.82 21.128 137.884 21.392 137.884 21.728C137.884 22.368 137.732 22.864 137.428 23.216C136.708 24.096 135.98 24.8 135.244 25.328C134.508 25.856 133.636 26.12 132.628 26.12C131.396 26.12 130.404 25.768 129.652 25.064C128.9 24.36 128.523 23.424 128.523 22.256C128.523 21.632 128.844 21.184 129.484 20.912C130.188 20.608 130.692 20.288 130.996 19.952C131.3 19.6 131.452 19.176 131.452 18.68C131.452 18.392 131.388 18.176 131.26 18.032C131.148 17.888 131.004 17.816 130.828 17.816C130.396 17.816 129.916 18.128 129.388 18.752C128.876 19.376 128.396 20.184 127.948 21.176C127.5 22.152 127.148 23.16 126.892 24.2C126.716 24.952 126.508 25.464 126.268 25.736C126.044 25.992 125.684 26.12 125.188 26.12C124.692 26.12 124.324 25.944 124.084 25.592C123.86 25.224 123.708 24.664 123.628 23.912C123.548 23.16 123.508 22.056 123.508 20.6C123.508 18.136 123.756 15.568 124.252 12.896C124.764 10.224 125.508 7.984 126.484 6.176C127.476 4.352 128.66 3.44 130.036 3.44C130.772 3.44 131.364 3.76 131.812 4.4C132.276 5.024 132.508 5.84 132.508 6.848C132.508 8.464 132.036 10.144 131.092 11.888C130.148 13.616 128.612 15.64 126.484 17.96C126.436 18.792 126.412 19.648 126.412 20.528C127.18 18.528 128.06 17.08 129.052 16.184C130.044 15.272 130.972 14.816 131.836 14.816C132.636 14.816 133.276 15.088 133.756 15.632C134.252 16.176 134.5 16.848 134.5 17.648C134.5 18.528 134.276 19.336 133.828 20.072C133.38 20.808 132.612 21.464 131.524 22.04C131.588 22.472 131.78 22.824 132.1 23.096C132.436 23.352 132.836 23.48 133.3 23.48C133.796 23.48 134.276 23.288 134.74 22.904C135.204 22.52 135.812 21.88 136.564 20.984C136.756 20.76 136.972 20.648 137.212 20.648ZM129.532 5.816C129.244 5.816 128.924 6.232 128.572 7.064C128.22 7.88 127.876 8.992 127.54 10.4C127.22 11.792 126.956 13.312 126.748 14.96C127.74 13.792 128.556 12.52 129.196 11.144C129.852 9.768 130.18 8.52 130.18 7.4C130.18 6.888 130.124 6.496 130.012 6.224C129.9 5.952 129.74 5.816 129.532 5.816ZM144.349 14.816C144.717 14.816 144.973 14.864 145.117 14.96C145.261 15.056 145.333 15.216 145.333 15.44C145.333 15.824 145.125 17.192 144.709 19.544C144.341 21.8 144.125 23.136 144.061 23.552C143.469 27.664 142.653 30.92 141.613 33.32C140.573 35.72 139.189 36.92 137.461 36.92C136.645 36.92 135.981 36.664 135.469 36.152C134.957 35.656 134.701 35 134.701 34.184C134.701 33.432 134.869 32.664 135.205 31.88C135.557 31.096 136.197 30.192 137.125 29.168C138.069 28.16 139.397 27 141.109 25.688L141.181 25.136C141.293 24.544 141.421 23.696 141.565 22.592C141.245 23.744 140.797 24.624 140.221 25.232C139.645 25.824 139.037 26.12 138.397 26.12C137.677 26.12 137.085 25.792 136.621 25.136C136.173 24.464 135.949 23.632 135.949 22.64C135.949 21.44 136.029 20.344 136.189 19.352C136.349 18.344 136.613 17.28 136.981 16.16C137.141 15.68 137.365 15.336 137.653 15.128C137.941 14.92 138.397 14.816 139.021 14.816C139.373 14.816 139.613 14.872 139.741 14.984C139.885 15.096 139.957 15.264 139.957 15.488C139.957 15.616 139.869 16.048 139.693 16.784C139.533 17.376 139.405 17.912 139.309 18.392C139.181 19.048 139.069 19.68 138.973 20.288C138.877 20.88 138.829 21.368 138.829 21.752C138.829 22.36 138.997 22.664 139.333 22.664C139.573 22.664 139.869 22.424 140.221 21.944C140.589 21.464 140.973 20.736 141.373 19.76C141.789 18.784 142.189 17.584 142.573 16.16C142.701 15.68 142.893 15.336 143.149 15.128C143.421 14.92 143.821 14.816 144.349 14.816ZM137.725 34.592C138.125 34.592 138.573 34.128 139.069 33.2C139.565 32.272 140.061 30.728 140.557 28.568C139.325 29.608 138.429 30.552 137.869 31.4C137.325 32.264 137.053 33.016 137.053 33.656C137.053 33.928 137.101 34.152 137.197 34.328C137.309 34.504 137.485 34.592 137.725 34.592Z" fill="black"/>
<path d="M11.848 25.192C9.72 25.192 8.016 24.792 6.736 23.992C5.456 23.176 4.816 21.936 4.816 20.272C4.816 19.392 4.968 18.72 5.272 18.256C5.576 17.792 6.024 17.56 6.616 17.56C7.048 17.56 7.4 17.672 7.672 17.896C7.944 18.12 8.08 18.408 8.08 18.76C8.08 19.08 8.056 19.36 8.008 19.6C8.008 19.664 7.992 19.776 7.96 19.936C7.944 20.096 7.936 20.264 7.936 20.44C7.936 21.16 8.296 21.696 9.016 22.048C9.752 22.4 10.776 22.576 12.088 22.576C13.448 22.576 14.512 22.336 15.28 21.856C16.048 21.36 16.432 20.672 16.432 19.792C16.432 19.248 16.256 18.784 15.904 18.4C15.552 18 15.112 17.672 14.584 17.416C14.056 17.144 13.312 16.816 12.352 16.432C11.12 15.952 10.112 15.496 9.328 15.064C8.56 14.632 7.896 14.048 7.336 13.312C6.792 12.56 6.52 11.632 6.52 10.528C6.52 9.376 6.824 8.352 7.432 7.456C8.056 6.56 8.944 5.864 10.096 5.368C11.264 4.872 12.632 4.624 14.2 4.624C15.368 4.624 16.44 4.8 17.416 5.152C18.392 5.488 19.168 6.008 19.744 6.712C20.336 7.416 20.632 8.28 20.632 9.304C20.632 10.312 20.48 11.072 20.176 11.584C19.872 12.096 19.424 12.352 18.832 12.352C18.416 12.352 18.064 12.224 17.776 11.968C17.504 11.712 17.368 11.408 17.368 11.056C17.368 10.752 17.392 10.472 17.44 10.216C17.488 9.736 17.512 9.432 17.512 9.304C17.512 8.632 17.184 8.12 16.528 7.768C15.872 7.416 15.056 7.24 14.08 7.24C12.704 7.24 11.648 7.496 10.912 8.008C10.192 8.504 9.832 9.208 9.832 10.12C9.832 10.728 10.016 11.248 10.384 11.68C10.768 12.112 11.24 12.472 11.8 12.76C12.36 13.048 13.144 13.392 14.152 13.792C15.368 14.288 16.344 14.736 17.08 15.136C17.816 15.536 18.44 16.08 18.952 16.768C19.48 17.456 19.744 18.304 19.744 19.312C19.744 21.2 19.024 22.656 17.584 23.68C16.16 24.688 14.248 25.192 11.848 25.192ZM24.8194 12.232C24.1474 12.232 23.6434 12.08 23.3074 11.776C22.9714 11.456 22.8034 11.016 22.8034 10.456C22.8034 9.896 23.0194 9.432 23.4514 9.064C23.8994 8.68 24.4514 8.488 25.1074 8.488C25.6994 8.488 26.1794 8.632 26.5474 8.92C26.9154 9.208 27.0994 9.616 27.0994 10.144C27.0994 10.784 26.8914 11.296 26.4754 11.68C26.0594 12.048 25.5074 12.232 24.8194 12.232ZM24.6274 25.12C23.5874 25.12 22.8274 24.752 22.3474 24.016C21.8834 23.28 21.6514 22.304 21.6514 21.088C21.6514 20.368 21.7394 19.448 21.9154 18.328C22.1074 17.192 22.3474 16.136 22.6354 15.16C22.7794 14.648 22.9714 14.296 23.2114 14.104C23.4514 13.912 23.8354 13.816 24.3634 13.816C25.1794 13.816 25.5874 14.088 25.5874 14.632C25.5874 15.032 25.4354 15.96 25.1314 17.416C24.7474 19.176 24.5554 20.368 24.5554 20.992C24.5554 21.472 24.6194 21.84 24.7474 22.096C24.8754 22.352 25.0914 22.48 25.3954 22.48C25.6834 22.48 26.0434 22.28 26.4754 21.88C26.9074 21.48 27.4834 20.848 28.2034 19.984C28.3954 19.76 28.6114 19.648 28.8514 19.648C29.0594 19.648 29.2194 19.744 29.3314 19.936C29.4594 20.128 29.5234 20.392 29.5234 20.728C29.5234 21.368 29.3714 21.864 29.0674 22.216C27.4834 24.152 26.0034 25.12 24.6274 25.12ZM29.2857 25.12C28.6777 25.12 28.2457 24.8 27.9897 24.16C27.7497 23.52 27.6297 22.496 27.6297 21.088C27.6297 19.008 27.9257 17.032 28.5177 15.16C28.6617 14.696 28.8937 14.36 29.2137 14.152C29.5497 13.928 30.0137 13.816 30.6057 13.816C30.9257 13.816 31.1497 13.856 31.2777 13.936C31.4057 14.016 31.4697 14.168 31.4697 14.392C31.4697 14.648 31.3497 15.224 31.1097 16.12C30.9497 16.76 30.8217 17.32 30.7257 17.8C30.6297 18.264 30.5497 18.848 30.4857 19.552C30.9177 18.304 31.4297 17.248 32.0217 16.384C32.6297 15.52 33.2457 14.88 33.8697 14.464C34.5097 14.032 35.1097 13.816 35.6697 13.816C36.2297 13.816 36.6217 13.944 36.8457 14.2C37.0857 14.456 37.2057 14.848 37.2057 15.376C37.2057 15.888 37.0537 16.816 36.7497 18.16C36.6217 18.736 36.5337 19.168 36.4857 19.456C37.2857 17.488 38.1737 16.056 39.1497 15.16C40.1257 14.264 41.0377 13.816 41.8857 13.816C42.9257 13.816 43.4457 14.336 43.4457 15.376C43.4457 16 43.2697 17.128 42.9177 18.76C42.6137 20.152 42.4617 21.072 42.4617 21.52C42.4617 22.16 42.6937 22.48 43.1577 22.48C43.4777 22.48 43.8537 22.288 44.2857 21.904C44.7337 21.504 45.3257 20.864 46.0617 19.984C46.2537 19.76 46.4697 19.648 46.7097 19.648C46.9177 19.648 47.0777 19.744 47.1897 19.936C47.3177 20.128 47.3817 20.392 47.3817 20.728C47.3817 21.368 47.2297 21.864 46.9257 22.216C46.2377 23.064 45.4937 23.76 44.6937 24.304C43.9097 24.848 43.0137 25.12 42.0057 25.12C41.1897 25.12 40.5737 24.888 40.1577 24.424C39.7417 23.944 39.5337 23.256 39.5337 22.36C39.5337 21.912 39.6457 21.112 39.8697 19.96C40.0777 18.952 40.1817 18.256 40.1817 17.872C40.1817 17.616 40.0937 17.488 39.9177 17.488C39.7097 17.488 39.4137 17.76 39.0297 18.304C38.6457 18.832 38.2617 19.536 37.8777 20.416C37.4937 21.296 37.1817 22.224 36.9417 23.2C36.7657 23.968 36.5577 24.48 36.3177 24.736C36.0937 24.992 35.7257 25.12 35.2137 25.12C34.6857 25.12 34.2857 24.872 34.0137 24.376C33.7577 23.864 33.6297 23.248 33.6297 22.528C33.6297 21.92 33.7097 21.04 33.8697 19.888C33.9977 18.864 34.0617 18.192 34.0617 17.872C34.0617 17.616 33.9737 17.488 33.7977 17.488C33.5577 17.488 33.2537 17.776 32.8857 18.352C32.5177 18.928 32.1577 19.664 31.8057 20.56C31.4697 21.456 31.1977 22.336 30.9897 23.2C30.8137 23.952 30.6057 24.464 30.3657 24.736C30.1417 24.992 29.7817 25.12 29.2857 25.12ZM47.1451 25.12C46.5371 25.12 46.1051 24.8 45.8491 24.16C45.6091 23.52 45.4891 22.496 45.4891 21.088C45.4891 19.008 45.7851 17.032 46.3771 15.16C46.5211 14.696 46.7531 14.36 47.0731 14.152C47.4091 13.928 47.8731 13.816 48.4651 13.816C48.7851 13.816 49.0091 13.856 49.1371 13.936C49.2651 14.016 49.3291 14.168 49.3291 14.392C49.3291 14.648 49.2091 15.224 48.9691 16.12C48.8091 16.76 48.6811 17.32 48.5851 17.8C48.4891 18.28 48.4091 18.872 48.3451 19.576C48.8731 18.2 49.4651 17.08 50.1211 16.216C50.7771 15.352 51.4171 14.736 52.0411 14.368C52.6811 14 53.2651 13.816 53.7931 13.816C54.8331 13.816 55.3531 14.336 55.3531 15.376C55.3531 15.584 55.2811 16.088 55.1371 16.888C55.0091 17.528 54.9451 17.928 54.9451 18.088C54.9451 18.648 55.1451 18.928 55.5451 18.928C55.9931 18.928 56.5691 18.576 57.2731 17.872C57.4811 17.664 57.6971 17.56 57.9211 17.56C58.1291 17.56 58.2891 17.656 58.4011 17.848C58.5291 18.024 58.5931 18.264 58.5931 18.568C58.5931 19.16 58.4331 19.624 58.1131 19.96C57.6651 20.424 57.1371 20.824 56.5291 21.16C55.9371 21.48 55.3051 21.64 54.6331 21.64C53.7851 21.64 53.1371 21.424 52.6891 20.992C52.2571 20.56 52.0411 19.976 52.0411 19.24C52.0411 19 52.0651 18.76 52.1131 18.52C52.1451 18.2 52.1611 17.984 52.1611 17.872C52.1611 17.616 52.0731 17.488 51.8971 17.488C51.6571 17.488 51.3371 17.76 50.9371 18.304C50.5531 18.832 50.1691 19.536 49.7851 20.416C49.4011 21.296 49.0891 22.224 48.8491 23.2C48.6731 23.952 48.4651 24.464 48.2251 24.736C48.0011 24.992 47.6411 25.12 47.1451 25.12ZM59.3149 25.12C58.3229 25.12 57.5309 24.76 56.9389 24.04C56.3469 23.32 56.0509 22.376 56.0509 21.208C56.0509 19.928 56.3469 18.72 56.9389 17.584C57.5309 16.432 58.3149 15.512 59.2909 14.824C60.2829 14.12 61.3309 13.768 62.4349 13.768C62.7869 13.768 63.0189 13.84 63.1309 13.984C63.2589 14.112 63.3629 14.352 63.4429 14.704C63.7789 14.64 64.1309 14.608 64.4989 14.608C65.2829 14.608 65.6749 14.888 65.6749 15.448C65.6749 15.784 65.5549 16.584 65.3149 17.848C64.9469 19.688 64.7629 20.968 64.7629 21.688C64.7629 21.928 64.8189 22.12 64.9309 22.264C65.0589 22.408 65.2189 22.48 65.4109 22.48C65.7149 22.48 66.0829 22.288 66.5149 21.904C66.9469 21.504 67.5309 20.864 68.2669 19.984C68.4589 19.76 68.6749 19.648 68.9149 19.648C69.1229 19.648 69.2829 19.744 69.3949 19.936C69.5229 20.128 69.5869 20.392 69.5869 20.728C69.5869 21.368 69.4349 21.864 69.1309 22.216C68.4749 23.032 67.7789 23.72 67.0429 24.28C66.3069 24.84 65.5949 25.12 64.9069 25.12C64.3789 25.12 63.8909 24.944 63.4429 24.592C63.0109 24.224 62.6829 23.728 62.4589 23.104C61.6269 24.448 60.5789 25.12 59.3149 25.12ZM60.1789 22.696C60.5309 22.696 60.8669 22.488 61.1869 22.072C61.5069 21.656 61.7389 21.104 61.8829 20.416L62.7709 16C62.0989 16.016 61.4749 16.272 60.8989 16.768C60.3389 17.248 59.8909 17.888 59.5549 18.688C59.2189 19.488 59.0509 20.336 59.0509 21.232C59.0509 21.728 59.1469 22.096 59.3389 22.336C59.5469 22.576 59.8269 22.696 60.1789 22.696ZM69.3404 25.12C68.7324 25.12 68.3004 24.8 68.0444 24.16C67.8044 23.52 67.6844 22.496 67.6844 21.088C67.6844 19.008 67.9804 17.032 68.5724 15.16C68.7164 14.696 68.9484 14.36 69.2684 14.152C69.6044 13.928 70.0684 13.816 70.6604 13.816C70.9804 13.816 71.2044 13.856 71.3324 13.936C71.4604 14.016 71.5244 14.168 71.5244 14.392C71.5244 14.648 71.4044 15.224 71.1644 16.12C71.0044 16.76 70.8764 17.32 70.7804 17.8C70.6844 18.28 70.6044 18.872 70.5404 19.576C71.0684 18.2 71.6604 17.08 72.3164 16.216C72.9724 15.352 73.6124 14.736 74.2364 14.368C74.8764 14 75.4604 13.816 75.9884 13.816C76.5004 13.816 76.8844 13.952 77.1404 14.224C77.4124 14.48 77.5484 14.864 77.5484 15.376C77.5484 15.792 77.4604 16.576 77.2844 17.728C77.1244 18.704 76.9964 19.632 76.9004 20.512C76.8044 21.376 76.7564 22.344 76.7564 23.416C76.7564 24.024 76.6284 24.464 76.3724 24.736C76.1324 24.992 75.7324 25.12 75.1724 25.12C74.6444 25.12 74.2604 24.984 74.0204 24.712C73.7804 24.44 73.6604 24.032 73.6604 23.488C73.6604 22.848 73.7724 21.792 73.9964 20.32C74.1884 19.04 74.2844 18.224 74.2844 17.872C74.2844 17.616 74.1964 17.488 74.0204 17.488C73.8124 17.488 73.5164 17.76 73.1324 18.304C72.7644 18.832 72.3804 19.536 71.9804 20.416C71.5964 21.296 71.2844 22.224 71.0444 23.2C70.8684 23.952 70.6604 24.464 70.4204 24.736C70.1964 24.992 69.8364 25.12 69.3404 25.12Z" fill="black"/>
<path d="M72 36L76.396 33.5755C85.2466 28.6942 95.5762 27.216 105.441 29.4191V29.4191H106" stroke="black"/>
<circle cx="110" cy="30" r="1" fill="black"/>
</g>
<defs>
<clipPath id="clip0">
<rect width="149" height="41" fill="white"/>
</clipPath>
</defs>
</svg>
